{
	"asset":{
		"version":"2.0",
		"generator":"Created using the official Cinema 4D glTF Exporter 1.000x284978"
	},
	"scenes":[{
		"nodes":[0]
	}],
	"nodes":[{
		"name":"旋转",
		"translation":[153.3333282470703,
		246.6666717529297,
		0.0],
		"rotation":[-0.4282359778881073,
		0.6775661706924439,
		0.5919038653373718,
		0.08466319739818573],
		"scale":[0.9800000190734863,
		1.4199999570846558,
		1.0],
		"children":[1]
	},
	{
		"mesh":0,
		"name":"ZBrush_defualt_group.2",
		"translation":[306.2013244628906,
		187.03936767578126,
		-287.9383544921875],
		"rotation":[-0.12092054635286331,
		-0.9640275239944458,
		-0.01446647197008133,
		-0.23626241087913514],
		"scale":[0.8999999761581421,
		0.8999999761581421,
		0.8999999761581421]
	}],
	"meshes":[{
		"name":"ZBrush_defualt_group.2",
		"primitives":[{
			"attributes":{
				"POSITION":1
			},
			"indices":0,
			"material":0
		}]
	}],
	"accessors":[{
		"bufferView":0,
		"type":"SCALAR",
		"componentType":5123,
		"count":260676,
		"byteOffset":0,
		"min":[0],
		"max":[43447]
	},
	{
		"bufferView":1,
		"type":"VEC3",
		"componentType":5126,
		"count":43448,
		"byteOffset":0,
		"min":[-166.63272094726563,
		-152.3396759033203,
		-166.85739135742188],
		"max":[166.6947021484375,
		151.5417938232422,
		166.45323181152345]
	},
	{
		"bufferView":2,
		"type":"SCALAR",
		"componentType":5126,
		"count":201,
		"byteOffset":0,
		"min":[0.0],
		"max":[6.666666507720947]
	},
	{
		"bufferView":2,
		"type":"VEC3",
		"componentType":5126,
		"count":201,
		"byteOffset":804,
		"min":[0.0,
		0.0,
		-287.9383544921875],
		"max":[306.2013244628906,
		187.03936767578126,
		0.0]
	},
	{
		"bufferView":3,
		"type":"SCALAR",
		"componentType":5126,
		"count":201,
		"byteOffset":0,
		"min":[0.0],
		"max":[6.666666507720947]
	},
	{
		"bufferView":3,
		"type":"VEC4",
		"componentType":5126,
		"count":201,
		"byteOffset":804,
		"min":[-0.12092054635286331,
		-0.9640275239944458,
		-0.01446647197008133,
		-0.6424524784088135],
		"max":[-0.10801035165786743,
		-0.75661301612854,
		0.04112829267978668,
		-0.23626241087913514]
	}],
	"bufferViews":[{
		"buffer":0,
		"byteOffset":0,
		"byteLength":521352,
		"target":34963
	},
	{
		"buffer":0,
		"byteOffset":521352,
		"byteLength":521376,
		"target":34962
	},
	{
		"buffer":1,
		"byteOffset":0,
		"byteLength":3216
	},
	{
		"buffer":1,
		"byteOffset":3216,
		"byteLength":4020
	}],
	"buffers":[{
		"byteLength":1042728,
		"uri":"data:application/octet-stream;base64,"
	},
	{
		"byteLength":7236,
		"uri":"data:application/octet-stream;base64,"
	}],
	"materials":[{
		"pbrMetallicRoughness":{
			"baseColorFactor":[1.0,
			1.0,
			1.0,
			1.0],
			"metallicFactor":1.0,
			"roughnessFactor":1.0
		},
		"emissiveFactor":[0.0,
		0.0,
		0.0],
		"alphaMode":"OPAQUE",
		"doubleSided":true,
		"name":"Node"
	}],
	"animations":[{
		"samplers":[{
			"output":3,
			"input":2,
			"interpolation":"LINEAR"
		},
		{
			"output":5,
			"input":4,
			"interpolation":"LINEAR"
		}],
		"channels":[{
			"sampler":0,
			"target":{
				"path":"translation",
				"node":1
			}
		},
		{
			"sampler":1,
			"target":{
				"path":"rotation",
				"node":1
			}
		}]
	}]
}